<?xml version="1.0" encoding="utf-8"?>
<!-- Generator: Adobe Illustrator 19.1.1, SVG Export Plug-In . SVG Version: 6.00 Build 0)  -->
<svg version="1.1"  xmlns="http://www.w3.org/2000/svg" xmlns:xlink="http://www.w3.org/1999/xlink" x="0px" y="0px"
	 viewBox="0 0 48 48" enable-background="new 0 0 48 48" xml:space="preserve">
<path fill="none" stroke="#263238" stroke-width="2" stroke-miterlimit="10" d="M30,42c0,0,2.1,0,8,0s3.7-5.8,3-7s-3-7.3-3-18
	c0-3-2-3-2-3H7c0,0-2,0.2-2,2C5,22.3,21,42,30,42"/>
<path fill="#546E7A" d="M32.5,43h-23C8.7,43,8,42.3,8,41.5L7,20l1-7.5C8,11.7,8.7,11,9.5,11h23c0.8,0,1.5,0.7,1.5,1.5l1,7.5l-1,21.5
	C34,42.3,33.3,43,32.5,43z"/>
<path fill="#C5CAE9" d="M10,27V6c0-0.6,0.4-1,1-1h20c0.5,0,1,0.4,1,1v21H10z"/>
<rect x="12" y="5" fill="#7986CB" width="18" height="12"/>
<circle fill="#18FFFF" cx="27" cy="14" r="1"/>
<polygon fill="#263238" points="33.9,34 8,34 10,27 32,27 "/>
<path fill="#212121" d="M24,14V8c0-0.6-0.5-1-1-1h-8c-0.6,0-1,0.4-1,1v6c0,0.6,0.4,1,1,1h8C23.5,15,24,14.6,24,14z"/>
<path fill="#3949AB" d="M22,25H12v-6h10V25z M24,22c0,1.7,1.3,3,3,3s3-1.3,3-3s-1.3-3-3-3S24,20.3,24,22z M28,7h-2v1h2V7z M28,9h-2
	v1h2V9z M28,11h-2v1h2V11z"/>
<path fill="#9FA8DA" d="M12,43h-2v-9h2V43z M30,43h2v-9h-2V43z M15,20h-2v4h2V20z M18,20h-2v4h2V20z M21,20h-2v4h2V20z"/>
</svg>
